<?xml version="1.0" encoding="utf-8"?>
<!-- Generator: Adobe Illustrator 16.0.0, SVG Export Plug-In . SVG Version: 6.00 Build 0)  -->
<!DOCTYPE svg PUBLIC "-//W3C//DTD SVG 1.1//EN" "http://www.w3.org/Graphics/SVG/1.1/DTD/svg11.dtd">
<svg version="1.1" id="Layer_1" xmlns="http://www.w3.org/2000/svg" xmlns:xlink="http://www.w3.org/1999/xlink" x="0px" y="0px"
	 width="548.238px" height="118.651px" viewBox="0 0 548.238 118.651" enable-background="new 0 0 548.238 118.651"
	 xml:space="preserve">
<g>
	<path fill-rule="evenodd" clip-rule="evenodd" d="M38.158,0c1.531,0.248,3.064,0.476,4.591,0.745
		c7.447,1.311,13.09,5.478,17.725,11.231c0.477,0.593,0.943,1.194,1.427,1.807c0.358-0.282,0.196-0.634,0.197-0.928
		c0.014-3.326,0.037-6.652-0.01-9.977c-0.012-0.826,0.226-1.049,1.043-1.047c9.356,0.026,18.713,0.027,28.068-0.001
		c0.812-0.003,0.948,0.29,0.944,1.012c-0.027,4.897-0.022,9.795-0.004,14.692c0.002,0.578-0.157,1.045-0.469,1.523
		c-4.104,6.259-6.102,13.194-6.602,20.612c-0.515,7.647,0.348,15.086,3.302,22.216c0.911,2.198,2.03,4.286,3.324,6.281
		c0.24,0.371,0.444,0.723,0.443,1.201c-0.009,5.553,0.199,11.115-0.032,16.659c-0.619,14.791-10.125,26.45-24.415,30.204
		c-8.709,2.288-17.601,2.638-26.534,2.332c-7.018-0.241-13.993-0.894-20.743-3.021c-8.132-2.562-13.958-7.61-16.804-15.78
		c-1.394-4.002-1.492-8.16-1.215-12.346c0.042-0.63,0.358-0.597,0.783-0.549c3.374,0.385,6.747,0.771,10.121,1.152
		c6.24,0.708,12.477,1.437,18.722,2.096c1.06,0.111,1.666,0.388,1.988,1.513c1.082,3.777,3.904,5.675,7.534,6.545
		c3.067,0.735,6.163,0.726,9.23-0.005c4.845-1.155,7.488-4.375,8.441-9.145c0.395-1.977,0.616-3.972,0.628-5.983
		c0.025-4.203,0.01-8.406,0.009-12.608c0-0.169-0.014-0.339-0.031-0.717c-0.414,0.446-0.706,0.749-0.983,1.063
		C51.531,79.034,42.216,82.353,31.436,81.4c-14.007-1.237-22.77-9.516-28.132-21.939c-1.881-4.357-2.629-9.02-3.078-13.725
		c-0.025-0.266,0.121-0.6-0.226-0.78c0-3.436,0-6.871,0-10.307c0.331-0.188,0.2-0.516,0.223-0.786
		c0.31-3.642,0.874-7.241,1.985-10.729C6.02,11.176,13.884,3.554,26.238,0.747C27.573,0.445,28.966,0.488,30.263,0
		C32.894,0,35.526,0,38.158,0z M60.098,41.265c0.047-0.797-0.087-2.108-0.245-3.412c-0.408-3.382-1.335-6.591-3.497-9.306
		c-3.521-4.422-8.119-6.246-13.671-5.198c-5.363,1.013-8.362,4.593-9.702,9.702c-1.049,4-1.171,8.088-0.872,12.184
		c0.217,2.968,0.82,5.874,2.426,8.442c2.859,4.574,7.159,6.459,12.391,6.097c5.64-0.391,9.472-3.478,11.62-8.646
		C59.786,48.149,60.06,44.982,60.098,41.265z"/>
	<path fill-rule="evenodd" clip-rule="evenodd" d="M237.06,0c1.437,0.424,2.929,0.299,4.396,0.424
		c4.477,0.379,8.961,0.742,13.292,2.019c5.969,1.759,11.179,4.714,14.646,10.091c2.796,4.338,4.228,9.184,4.942,14.262
		c0.234,1.67,0.234,3.351,0.234,5.032c-0.002,11.988,0.047,23.976-0.015,35.963c-0.029,5.765,0.972,11.252,3.685,16.377
		c0.099,0.187,0.163,0.392,0.245,0.592c-0.379,0.26-0.75,0.149-1.095,0.149c-9.283,0.008-18.566-0.005-27.85,0.026
		c-0.812,0.002-1.197-0.282-1.597-0.967c-1.609-2.759-2.472-5.743-2.835-8.862c-0.441-0.175-0.582,0.168-0.765,0.346
		c-7.579,7.364-16.824,10.642-27.215,11.222c-6.209,0.347-12.362,0.151-18.303-1.841c-7.915-2.653-13.618-7.753-15.75-15.975
		c-1.971-7.605-0.76-14.809,4.407-21.021c2.598-3.123,6.127-4.901,9.819-6.376c4.908-1.96,10.082-2.895,15.224-3.972
		c8.777-1.839,17.644-3.318,26.137-6.332c1.307-0.464,2.596-0.974,3.909-1.416c0.51-0.171,0.649-0.45,0.641-0.96
		c-0.025-1.396-0.212-2.764-0.557-4.114c-0.934-3.671-3.656-5.104-7.085-5.518c-4.025-0.485-8.018-0.231-11.947,0.834
		c-4.051,1.099-6.367,3.956-7.744,7.704c-0.334,0.909-0.767,1.106-1.659,1.009c-7.514-0.818-15.031-1.606-22.55-2.372
		c-0.613-0.063-0.891-0.305-1.084-0.851c-0.809-2.277-1.863-4.443-3.159-6.48c-0.363-0.572-0.353-1.021-0.094-1.607
		c3.157-7.152,8.829-11.49,15.97-14.061c5.466-1.969,11.214-2.603,16.971-3.091c0.333-0.028,0.742,0.164,0.996-0.236
		c3.435,0,6.871,0,10.307,0c1.388,0.282,2.777,0.422,4.166,0C236.183,0,236.622,0,237.06,0z M243.2,45.696
		c-0.429-0.121-0.718,0.091-1.016,0.194c-4.065,1.41-8.197,2.591-12.356,3.688c-3.806,1.005-7.62,2.024-11.081,3.981
		c-3.174,1.796-4.734,4.968-4.249,8.447c0.453,3.239,2.801,5.852,6.302,6.631c5.938,1.322,11.356-0.034,16.249-3.578
		c2.893-2.095,4.719-4.889,5.535-8.391C243.433,53.026,243.146,49.35,243.2,45.696z"/>
	<path fill-rule="evenodd" clip-rule="evenodd" d="M144.517,0c1.138,0.417,2.344,0.312,3.518,0.435
		c7.361,0.771,14.493,2.314,20.906,6.233c9.23,5.641,14.745,13.933,17.222,24.355c0.872,3.666,1.378,7.387,1.589,11.151
		c0.033,0.594-0.124,0.931-0.658,1.21c-3.314,1.73-5.999,4.148-7.859,7.415c-0.307,0.537-0.709,0.521-1.188,0.52
		c-3.215-0.006-6.432-0.003-9.648-0.003c-14.51,0-29.02,0.012-43.53-0.023c-1.066-0.003-1.212,0.249-1.044,1.266
		c0.57,3.459,1.393,6.813,3.604,9.632c4.484,5.717,12.209,7.479,19.444,4.568c2.916-1.174,5.138-3.174,7.068-5.551
		c0.461-0.569,0.909-0.684,1.585-0.619c6.145,0.586,12.29,1.155,18.438,1.698c2.035,0.18,2.049,0.138,2.202,2.119
		c0.23,2.977,0.858,5.853,2.275,8.502c0.335,0.628,0.035,0.905-0.33,1.284c-5.539,5.769-12.285,9.308-20.089,10.892
		c-9.019,1.831-18.118,2.107-27.267,1.366c-5.779-0.468-11.458-1.446-16.76-3.892c-9.583-4.421-16.086-11.873-19.798-21.56
		c-4.513-11.776-4.524-23.813,0.263-35.501c5.227-12.76,15.11-20.359,28.353-23.742c3.297-0.842,6.652-1.337,10.049-1.558
		c0.238-0.016,0.523,0.081,0.693-0.196C137.207,0,140.862,0,144.517,0z M139.528,36.024c4.931,0,9.863-0.015,14.794,0.016
		c0.768,0.005,1.041-0.168,0.907-0.974c-0.333-2.016-0.673-4.028-1.301-5.979c-3.217-9.991-15.459-13.647-23.707-7.08
		c-4.186,3.333-5.693,7.958-6.351,13.02c-0.117,0.897,0.195,1.017,0.974,1.012C129.738,36.01,134.633,36.024,139.528,36.024z"/>
	<path fill-rule="evenodd" clip-rule="evenodd" d="M514.032,0c1.592,0.321,3.199,0.577,4.771,0.973
		c6.23,1.572,11.282,5.025,15.471,9.827c0.214,0.244,0.428,0.489,0.646,0.738c0.372-0.209,0.212-0.537,0.213-0.792
		c0.014-2.631,0.028-5.263-0.005-7.895c-0.01-0.724,0.15-1.037,0.959-1.028c3.764,0.037,7.529,0.038,11.292-0.002
		c0.783-0.008,0.88,0.311,0.876,0.969c-0.024,3.8-0.012,7.602-0.013,11.403c-0.004,20.942,0.025,41.884-0.034,62.826
		c-0.018,5.994-0.471,11.97-1.803,17.84c-2.361,10.404-9.011,17.045-18.667,20.885c-6.847,2.723-14.041,3.21-21.331,2.759
		c-5.107-0.315-10.062-1.297-14.739-3.421c-6.131-2.784-10.879-6.921-13.021-13.552c-0.93-2.878-1.285-5.832-1.285-8.848
		c0-0.713,0.224-0.874,0.889-0.773c4.04,0.615,8.085,1.201,12.127,1.806c0.425,0.063,0.794,0.121,0.883,0.74
		c0.956,6.738,5.265,10.239,11.549,11.676c6.026,1.378,12.068,1.298,17.947-0.671c7.037-2.358,10.957-7.584,12.284-14.691
		c1.001-5.364,0.763-10.842,0.76-16.364c-0.515,0.129-0.725,0.535-0.998,0.83c-7.178,7.754-16.111,10.541-26.464,9.492
		c-8.351-0.846-15.469-4.1-21.01-10.497c-3.751-4.331-6.575-9.242-8.242-14.713c-4.241-13.913-3.505-27.592,2.846-40.723
		c4.895-10.119,13.037-16.279,24.19-18.277c1.177-0.211,2.366-0.346,3.551-0.516C509.792,0,511.912,0,514.032,0z M535.029,42.312
		c-0.074-3.028-0.223-6.309-0.836-9.549c-1.09-5.758-3.306-10.926-7.626-15.075c-6.906-6.632-17.296-8.011-25.251-3.173
		c-5.616,3.416-9.025,8.503-10.705,14.792c-1.633,6.11-1.766,12.335-1.255,18.589c0.301,3.682,0.962,7.298,2.237,10.788
		c3.148,8.618,10.771,14.252,19.336,14.589c10.845,0.427,18.32-6.416,21.241-13.641C534.387,54.151,534.92,48.399,535.029,42.312z"
		/>
	<path fill-rule="evenodd" clip-rule="evenodd" d="M367.542,0c1.307,0.256,2.619,0.482,3.918,0.773
		c6.428,1.442,11.677,4.837,16.02,9.72c0.267,0.3,0.526,0.607,0.794,0.907c0.044,0.05,0.113,0.079,0.188,0.129
		c0.301-0.26,0.145-0.609,0.146-0.905c0.015-2.595,0.033-5.19-0.006-7.784c-0.011-0.738,0.171-1.024,0.964-1.017
		c3.728,0.036,7.455,0.042,11.183-0.003c0.866-0.011,1.007,0.311,1.005,1.085c-0.023,9.721-0.016,19.441-0.016,29.163
		c0,4.824-0.007,9.648,0.01,14.472c0.002,0.577-0.126,1.031-0.519,1.482c-7.557,8.708-7.04,22.433-0.005,30.105
		c0.223,0.244,0.444,0.485,0.428,0.854c-0.321,6.974-0.606,13.982-3.228,20.562c-3.129,7.855-9.096,12.915-16.787,16.035
		c-6.979,2.832-14.298,3.379-21.737,2.924c-4.919-0.301-9.705-1.215-14.238-3.195c-5.658-2.471-10.322-6.041-12.834-11.918
		c-1.477-3.452-2.01-7.07-1.976-10.799c0.006-0.586,0.186-0.777,0.765-0.69c4.114,0.619,8.229,1.221,12.343,1.837
		c0.353,0.053,0.701,0.096,0.769,0.605c0.937,7.035,5.485,10.526,11.98,11.879c6.485,1.351,12.976,1.259,19.145-1.402
		c6.248-2.696,9.616-7.807,10.717-14.367c0.885-5.273,0.735-10.63,0.718-16.034c-0.521,0.078-0.712,0.506-0.98,0.796
		c-4.708,5.064-10.377,8.494-17.277,9.344c-13.533,1.668-26.143-2.364-34.2-15.781c-3.852-6.414-5.983-13.341-6.592-20.775
		c-0.771-9.446,0.407-18.598,4.242-27.303c4.477-10.158,11.882-17.016,22.829-19.703c1.717-0.421,3.476-0.669,5.215-0.997
		C362.864,0,365.203,0,367.542,0z M388.449,41.715c-0.014-1.279-0.04-3.47-0.295-5.651c-0.551-4.716-1.663-9.257-4.113-13.389
		c-5.095-8.589-14.597-12.815-23.962-10.345c-7.563,1.995-12.365,7.153-15.123,14.324c-1.564,4.064-2.147,8.328-2.307,12.649
		c-0.241,6.493,0.16,12.925,2.326,19.122c3.651,10.447,13.308,16.36,24.175,14.536c8.303-1.394,13.802-6.431,16.816-14.196
		C387.976,53.583,388.456,48.135,388.449,41.715z"/>
	<path fill-rule="evenodd" clip-rule="evenodd" d="M447.146,0c1.578,0.445,3.222,0.388,4.828,0.639
		c5.602,0.874,10.885,2.556,15.344,6.192c3.62,2.951,5.376,7.006,6.378,11.45c0.098,0.428-0.07,0.786-0.243,1.15
		c-3.99,8.404-5.419,17.302-4.983,26.523c0.356,7.578,2.191,14.774,5.953,21.423c0.701,1.241,0.419,2.65,0.507,3.969
		c0.297,4.441,1.412,8.632,3.47,12.566c0.413,0.792,0.396,1.026-0.589,1.017c-4.275-0.041-8.551-0.035-12.826,0
		c-0.696,0.006-1.029-0.231-1.302-0.854c-1.162-2.663-1.882-5.44-2.282-8.309c-0.039-0.275,0.085-0.667-0.247-0.775
		c-0.301-0.099-0.497,0.241-0.718,0.419c-4.562,3.702-9.386,6.987-14.99,8.899c-9.251,3.155-18.642,3.63-27.953,0.507
		c-8.285-2.778-13.617-8.564-15.194-17.272c-1.953-10.773,2.991-19.932,11.371-24.805c4.594-2.671,9.58-4.05,14.785-4.805
		c8.121-1.179,16.307-1.946,24.334-3.732c2.208-0.491,4.402-1.038,6.554-1.742c0.375-0.123,0.755-0.182,0.76-0.749
		c0.024-3.03,0.135-6.054-0.518-9.055c-1.044-4.81-4.205-7.615-8.605-9.261c-4.393-1.643-8.969-1.915-13.597-1.672
		c-2.374,0.125-4.719,0.448-7.025,1.048c-5.62,1.462-8.86,5.356-10.823,10.552c-0.425,1.125-0.784,2.276-1.112,3.433
		c-0.148,0.526-0.375,0.711-0.92,0.633c-2.96-0.43-5.923-0.858-8.891-1.232c-0.628-0.08-0.757-0.326-0.752-0.897
		c0.022-3.069,0.017-6.139,0.004-9.209c-0.002-0.46,0.145-0.839,0.357-1.235c3.047-5.663,7.884-9.189,13.739-11.472
		c4.729-1.843,9.657-2.801,14.713-3.146c0.352-0.023,0.738,0.085,1.045-0.197C440.86,0,444.002,0,447.146,0z M460.084,47.59
		c0-0.877,0-1.754,0-2.631c0-1.622-0.006-1.641-1.562-1.109c-7.297,2.489-14.859,3.727-22.451,4.854
		c-3.643,0.542-7.289,1.124-10.764,2.41c-5.093,1.887-8.141,6.046-8.244,11.152c-0.108,5.41,2.75,9.87,7.82,11.92
		c3.697,1.494,7.554,1.902,11.55,1.51c7.071-0.694,13.303-3.049,18.161-8.458c1.929-2.149,3.365-4.563,4.164-7.329
		C459.921,55.886,460.061,51.742,460.084,47.59z"/>
	<path fill-rule="evenodd" clip-rule="evenodd" d="M330.48,0c0.653,0.362,1.399,0.287,2.098,0.422
		c3.208,0.622,6.252,1.701,9.276,3.153c-0.152,0.122-0.237,0.215-0.343,0.271c-8.071,4.329-13.18,11.127-16.239,19.596
		c-0.349,0.965-0.753,1.318-1.808,1.368c-3.41,0.164-6.134,1.723-8.173,4.456c-2.379,3.19-3.377,6.922-4.099,10.741
		c-1.075,5.692-1.313,11.455-1.317,17.23c-0.007,8.805-0.015,17.611,0.018,26.417c0.004,0.936-0.149,1.295-1.216,1.288
		c-7.635-0.053-15.272-0.043-22.907-0.006c-0.827,0.004-1.187-0.283-1.549-0.993c-2.542-4.992-3.557-10.289-3.532-15.865
		c0.056-12.167-0.015-24.333,0.033-36.5c0.02-4.968-0.952-9.71-2.771-14.304c-0.191-0.481-0.315-0.953-0.313-1.479
		c0.013-4.312,0.032-8.623-0.014-12.934c-0.01-0.849,0.26-1.029,1.052-1.027c9.354,0.023,18.707,0.025,28.061-0.002
		c0.793-0.002,0.959,0.255,0.953,0.995c-0.033,4.048-0.017,8.096,0.156,12.222c0.244-0.456,0.489-0.91,0.732-1.366
		c1.599-3.008,3.381-5.892,5.748-8.37c2.813-2.945,6.298-4.537,10.294-5.095c0.279-0.039,0.595,0.045,0.815-0.217
		C327.119,0,328.799,0,330.48,0z"/>
	<path fill-rule="evenodd" clip-rule="evenodd" d="M235.744,0c-1.389,0.422-2.778,0.282-4.166,0C232.966,0,234.355,0,235.744,0z"/>
</g>
</svg>
